<?xml version="1.0" standalone="no"?>
<!DOCTYPE svg PUBLIC "-//W3C//DTD SVG 20010904//EN"
 "http://www.w3.org/TR/2001/REC-SVG-20010904/DTD/svg10.dtd">
<svg version="1.0" xmlns="http://www.w3.org/2000/svg"
 width="103.000000pt" height="20.000000pt" viewBox="0 0 103.000000 20.000000"
 preserveAspectRatio="xMidYMid meet">

<g transform="translate(0.000000,20.000000) scale(0.100000,-0.100000)"
fill="#000000" stroke="none">
<path d="M757 153 c-11 -10 -8 -83 3 -83 6 0 10 20 10 45 0 46 -2 50 -13 38z"/>
<path d="M20 105 c0 -19 5 -35 10 -35 6 0 10 6 10 14 0 8 8 17 18 19 16 4 16
5 0 6 -10 0 -18 5 -18 10 0 5 8 12 18 14 10 3 6 5 -10 6 -25 1 -28 -2 -28 -34z"/>
<path d="M134 126 c-10 -26 1 -51 23 -54 25 -4 46 27 37 52 -8 20 -53 21 -60
2z m32 -33 c-11 -11 -19 6 -11 24 8 17 8 17 12 0 3 -10 2 -21 -1 -24z"/>
<path d="M260 105 c0 -19 5 -35 10 -35 6 0 10 5 10 12 0 9 3 9 12 0 20 -20 28
-14 28 23 0 19 -4 35 -10 35 -5 0 -10 -8 -10 -17 -1 -17 -1 -17 -11 0 -16 28
-29 20 -29 -18z"/>
<path d="M380 105 c0 -36 15 -48 23 -17 4 16 5 16 6 0 1 -23 18 -23 24 0 4 16
5 16 6 0 2 -34 21 -18 21 17 0 35 -22 49 -34 23 -5 -10 -7 -10 -12 0 -12 26
-34 12 -34 -23z"/>
<path d="M523 107 c-10 -33 -10 -33 24 -33 36 0 38 3 23 40 -13 36 -35 32 -47
-7z"/>
<path d="M640 105 c0 -31 3 -35 25 -35 14 0 25 5 25 10 0 6 -7 10 -15 10 -9 0
-15 9 -15 25 0 14 -4 25 -10 25 -5 0 -10 -16 -10 -35z"/>
<path d="M830 130 c0 -5 5 -10 10 -10 6 0 10 -11 10 -25 0 -14 5 -25 10 -25 6
0 10 11 10 25 0 14 5 25 10 25 6 0 10 5 10 10 0 6 -13 10 -30 10 -16 0 -30 -4
-30 -10z"/>
<path d="M950 105 c0 -32 2 -35 30 -35 35 0 41 19 8 21 -22 1 -22 1 2 9 l25 8
-25 8 -25 8 25 7 c23 6 23 7 -7 8 -31 1 -33 -1 -33 -34z"/>
</g>
</svg>
